<?xml version="1.0" encoding="UTF-8"?>
<svg id="Capa_1" data-name="Capa 1" xmlns="http://www.w3.org/2000/svg" viewBox="0 0 1024 1024">
  <defs>
    <style>
      .cls-1 {
        fill: #fff;
      }

      .cls-2 {
        fill: #f7f7f7;
      }

      .cls-3 {
        fill: #1b2a20;
      }

      .cls-4 {
        fill: #f76d0f;
      }
    </style>
  </defs>
  <rect class="cls-2" x="-.16" y="1.03" width="1020.81" height="1020.04"/>
  <path class="cls-1" d="M1024,0v1024H0V0h1024ZM500.3,427.7c-3.87-4.5,6.09-9.16,9.43-10.47,26.02-10.25,75.43-7.93,78.31-45.69,2.17-28.42-34.51-77.16-64.64-77.43-22.47-.2-47.53,30.82-61.9,46.88-30.38,33.93-62.52,76.04-85.9,115.1-12.69,21.19-30.4,50.97,2.15,64.68,28.99,12.21,109.75,10.05,142.75,7.23,21-1.79,77.73-8.23,81.42-34.58,3.49-24.91-22.43-35.2-41.39-42.43-12.3-4.69-53.32-15.26-60.22-23.28ZM621.73,325.23c-5.3,1.08-11.09,7.89-11.75,13.25-2.81,22.88,25.83,27.83,33.22,10.22,6.01-14.32-6.76-26.47-21.47-23.47ZM420,568c-3.74.56-26.13,5.82-26.99,7.51-.96,1.89,5.54,2.8,6,4.98,1.24,1.81,2.59,3.86,2.93,6.07,3.04,19.87,2.35,58.27,1.1,78.98-.2,3.37-1,12.1-2.27,14.73-2.37,4.9-9.37,3.87-8.77,8.22l38.35.35c4.8-3.89-2.38-3.35-4.9-4.79-1.46-.83-5.45-6.01-5.45-7.55v-108.5ZM707,568c-3.72.55-26.16,5.84-26.99,7.51s6.08,2.93,6.44,5.54c1.19,1.78,2.18,4.42,2.46,6.54,2.54,19.06.59,39.85.05,58.87-.23,8.15,1.93,30.16-2.42,35.58-2.78,3.47-8.11,2.35-7.55,6.45l39.01.5-.6-3.08c-4.05-.05-10.4-5.59-10.4-9.41v-108.5ZM376.61,584.92c0-5.72-4.63-10.35-10.35-10.35s-10.35,4.63-10.35,10.35,4.63,10.35,10.35,10.35,10.35-4.63,10.35-10.35ZM174,589c-1.86-.26-2.95.01-4.55.95-3.03,1.78-10.05,10.45-13.44,13.56s-7.72,5.77-11.01,9c-.42,2.26.99,1.38,2.48,1.49,3.14.23,6.38-.16,9.52,0v61.5c0,1.26,2.6,7.03,3.57,8.43,7.79,11.25,31.24,6.36,35.43-5.93-.82-.82-10.18,6.86-17.52.02-2.11-1.96-4.48-8.9-4.48-11.52v-52.5h21.5l2.5-7h-24v-18ZM605,707.5c-.66-7.53.49-15.88,0-23.5,14.03,7.23,31.2,9.15,45.3.8,44.26-26.23,15.48-102.04-33.82-75.82-3.4,1.81-8.3,7.26-9.99,8.01-2.25,1.01-1.06-1.32-1.12-1.87-.35-3.33-.44-6.76-.38-10.12l-26.99,7.01c-.59,2.73,2.57,2.33,4.5,3.98,3.83,3.27,5.09,6.44,5.54,11.47,2.45,27.7-1.91,58.95-.04,87.04-.63,5.5-2.92,9.36-9,8.52v3.98c13.44-1.36,26.55.07,40,0v-3.99c-5.97.95-11.3-1.64-12.78-7.73-.36-1.48-1.09-6.2-1.23-7.77ZM230,605l-27,7.01c-.28,1.39-.2,1.28.64,2.07,2.25,2.13,4.64,2.7,6.57,6.21,4.06,7.38,3.53,39.55,2.83,49.25-.35,4.85-1.11,11.73-5.5,14.5-2.56,1.62-6.4.35-5.53,4.96h40.99s-.99-3.5-.99-3.5c-6.41-.38-10.67-3.73-11.77-10.23s-1.24-37.49-.01-43.53c.61-3.02,6.08-10.96,8.79-12.2,5.64-2.59,11.59,3.21,17.28,3.33,17.07-15.63-8.59-25.65-18.81-9.86l-7.49,11.01v-19ZM333.28,679.7c-10.82-8.93,2.8-50.05-8.29-65.19-9.67-13.21-33.64-12.06-45.47-2.48-6.09,4.93-18.87,24.74-4.07,24,11.93-.6,7.36-6.27,8.79-14.29,1.74-9.81,16.33-12.98,23.27-6.75,6.52,5.86,3.97,17.56,4.55,25.4-16.55,4.82-53.96,11.71-45.78,36.83,5.43,16.66,27.5,15.6,38.64,5.21l7.06-8.42c-.43,19.8,29.82,22.21,31,2.99-3.09,2.36-5.49,6.18-9.71,2.7ZM376,605l-27,7.01c-.55,2.38.42,1.61,1.3,2.22,4.85,3.33,7.7,4.7,8.61,11.36,1.38,10.14,1.03,35.37.12,45.95-.26,3.04-1.29,8.48-3.17,10.83-2.24,2.82-5.79,2.15-7.85,5.13.95,1.46,1.92,1.38,3.43,1.55,5.85.65,13.82-.74,20.09-.75,4.76,0,9.62,1.29,14.47.7l-.06-3.93c-3.85.91-9.94-4-9.94-7.56v-72.5ZM465,605l-26,7.01c-.28,1.38-.21,1.28.64,2.07,4.19,3.95,7.3,4.38,8.27,11.5,1.42,10.46,1.09,37.06.13,47.95-.56,6.36-2.76,11.8-9.98,11.52l-.06,3.93c13.44-.57,26.59-.95,40,0,.83-4.74-3.8-3.6-6.96-5.53-2.06-1.26-3.97-3.9-4.77-6.23-1.85-5.37-2.25-38.54-1.04-44.51s7.4-14.35,14.16-13.68c5.91.59,18.18,10.1,17.7-5.56-.43-14.36-19.52-8.49-24.6.5l-7.49,11.01v-20ZM570,635c1.95-28.04-31.35-37.33-52.32-24.83-25.47,15.18-27.13,59.86-.99,74.63,21.29,12.02,47.08,2.93,53.3-20.8l-7.52,7.97c-21.02,15.09-41.81,1.62-46.22-21.73-.29-1.53-1.39-11.89-1.15-12.6.57-1.72,1.95-1.53,3.35-1.7,9.58-1.13,22.02.47,32.09.09,6.19-.23,12.93-1.94,19.46-1.04ZM800.02,677c-2.61,9.03-10.54,2.42-11.79-3.73-3.41-16.77,6.1-48.71-6.73-61.27-9.57-9.36-29.33-9-40.19-2.2-12.84,8.05-24.37,34.16,1.21,23.21.4-10.4-.34-20.5,12.97-21.08,17.18-.74,14.69,16.37,14.58,28.45-9.37,3.5-19.66,5.09-28.76,9.42-36.18,17.21-9.56,55.73,20.02,34.02,3.6-2.64,4.94-5.39,7.59-8.19.8-.85.7-.9,2.08-.64-.38,15.87,20.51,20.44,29,8.5,1.62-2.28,3.55-4.94.03-6.5ZM833,607h-39c-.87,4.04,4,3.88,7.03,6.47,5.8,4.94,23.94,47,28.14,56.86,1.85,4.34,7.03,14.71,7.38,18.63.47,5.23-4.97,14.85-9.06,18.05-6.31,4.93-12.21,3.12-18.72,5.28-7.51,2.49-6.06,14.15,2.67,14.8,16.61,1.22,23.54-17.62,29.02-30.1,10.31-23.47,18.02-55.89,29.82-77.18,2.8-5.06,6.47-9.35,12.7-9.81v-2.97s-27.99,0-27.99,0c-1.3,4.95,5.72,3.16,8.07,6.42,1.21,1.67,1.07,3.05.88,4.97-.69,6.91-13.4,40.49-16.91,48.15-.45.99-.61,2.35-2.03,2.46l-19.96-50.61c-1.02-5.08,2.93-7.5,7.36-8.29l.59-3.09Z"/>
  <path class="cls-3" d="M500.3,427.7c6.9,8.02,47.92,18.59,60.22,23.28,18.96,7.23,44.88,17.52,41.39,42.43-3.69,26.35-60.42,32.79-81.42,34.58-33,2.82-113.77,4.98-142.75-7.23-32.56-13.71-14.84-43.49-2.15-64.68,23.38-39.06,55.52-81.17,85.9-115.1,14.38-16.06,39.44-47.08,61.9-46.88,30.14.27,66.81,49.01,64.64,77.43-2.88,37.76-52.29,35.44-78.31,45.69-3.34,1.32-13.3,5.97-9.43,10.47ZM520.76,316.21c-3.4.49-7.11,3.16-9.77,5.27-26.5,21.01-60.38,65.35-80.81,93.19-13.46,18.35-31.97,43.13-41.7,63.3-5.26,10.9-9.45,20.46,5.07,24.97,9.76,3.03,19.06,2.5,28.94,3.06,33.52,1.92,116.95,4.03,145.89-10.13,13.07-6.4,9.09-12.26-1.69-18.06-21.48-11.55-75.27-20.23-88.51-38.49-4.48-6.18-5.63-14.78-3.5-22.15,6.25-21.64,59.76-26.3,78.31-34.69,14.36-6.49,13.83-13.81,8.19-27.16-5.49-13-24.33-41.44-40.41-39.11Z"/>
  <path class="cls-4" d="M621.73,325.23c14.7-3.01,27.47,9.15,21.47,23.47-7.38,17.61-36.03,12.65-33.22-10.22.66-5.35,6.45-12.16,11.75-13.25Z"/>
  <g>
    <path class="cls-3" d="M605,707.5c.14,1.58.87,6.3,1.23,7.77,1.48,6.09,6.81,8.68,12.78,7.73v3.99c-13.45.07-26.56-1.36-40.01,0v-3.98c6.08.85,8.38-3.02,9-8.52-1.87-28.09,2.49-59.34.04-87.04-.44-5.02-1.71-8.19-5.54-11.47-1.93-1.65-5.1-1.25-4.5-3.98l26.99-7.01c-.07,3.37.02,6.79.38,10.12.06.55-1.13,2.88,1.12,1.87,1.69-.76,6.59-6.2,9.99-8.01,49.31-26.21,78.08,49.59,33.82,75.82-14.1,8.35-31.27,6.43-45.3-.8.49,7.62-.66,15.97,0,23.5ZM621.79,614.27c-4.63.44-15.18,4.64-16.59,9.43-1.2,4.08-.58,27.15-.25,32.84.7,12.08,1.58,24,14.82,28.18,31.59,9.97,39.71-35.26,28.93-55.93-5.13-9.85-15.99-15.55-26.92-14.52Z"/>
    <path class="cls-3" d="M800.02,677c3.53,1.55,1.59,4.22-.03,6.5-8.49,11.94-29.38,7.37-29-8.5-1.38-.26-1.28-.21-2.08.64-2.65,2.8-3.99,5.55-7.59,8.19-29.59,21.7-56.2-16.81-20.02-34.02,9.1-4.33,19.38-5.91,28.76-9.42.11-12.08,2.6-29.19-14.58-28.45-13.3.58-12.57,10.67-12.97,21.08-25.58,10.95-14.05-15.17-1.21-23.21,10.86-6.8,30.62-7.16,40.19,2.2,12.83,12.55,3.32,44.5,6.73,61.27,1.25,6.15,9.18,12.76,11.79,3.73ZM770,645c-10.22,2.3-28.64,7.65-29.05,20.53-.46,14.5,17.82,16.38,25.49,7.41.78-.91,3.56-5.7,3.56-6.44v-21.5Z"/>
    <path class="cls-3" d="M333.28,679.7c4.22,3.48,6.61-.34,9.71-2.7-1.18,19.22-31.44,16.81-31-2.99l-7.06,8.42c-11.14,10.4-33.21,11.46-38.64-5.21-8.19-25.12,29.23-32.01,45.78-36.83-.59-7.84,1.97-19.53-4.55-25.4-6.94-6.24-21.53-3.06-23.27,6.75-1.42,8.01,3.15,13.69-8.79,14.29-14.8.74-2.01-19.07,4.07-24,11.83-9.58,35.8-10.72,45.47,2.48,11.09,15.14-2.53,56.27,8.29,65.19ZM312,645c-13.15,2.9-32.45,7.53-28.77,25.27,2.49,12.01,20.67,9.23,26.22.68.51-.79,2.54-5.04,2.54-5.46v-20.5Z"/>
    <path class="cls-3" d="M833,607l-.59,3.09c-4.43.8-8.38,3.22-7.36,8.29l19.96,50.61c1.42-.12,1.57-1.47,2.03-2.46,3.51-7.66,16.22-41.24,16.91-48.15.19-1.91.33-3.3-.88-4.97-2.35-3.25-9.37-1.47-8.07-6.42h28v2.97c-6.24.47-9.91,4.75-12.71,9.81-11.79,21.29-19.51,53.71-29.82,77.18-5.48,12.49-12.4,31.32-29.02,30.1-8.73-.64-10.18-12.31-2.67-14.8,6.52-2.16,12.41-.35,18.72-5.28,4.09-3.19,9.53-12.81,9.06-18.05-.35-3.92-5.53-14.29-7.38-18.63-4.2-9.85-22.34-51.91-28.14-56.86-3.04-2.59-7.9-2.43-7.03-6.47h39Z"/>
    <path class="cls-3" d="M570,635c-6.53-.9-13.27.81-19.46,1.04-10.07.38-22.51-1.22-32.09-.09-1.4.16-2.78-.03-3.35,1.7-.24.71.86,11.07,1.15,12.6,4.42,23.35,25.21,36.82,46.22,21.73l7.52-7.97c-6.22,23.73-32.01,32.82-53.3,20.8-26.15-14.76-24.48-59.44.99-74.63,20.97-12.5,54.27-3.22,52.32,24.83ZM551,632c1.87-33.17-34.8-28.39-35.01.99l35.01-.99Z"/>
    <path class="cls-3" d="M707,568v108.5c0,3.82,6.35,9.36,10.4,9.41l.6,3.08-39.01-.5c-.56-4.1,4.76-2.98,7.55-6.45,4.34-5.42,2.18-27.43,2.42-35.58.55-19.02,2.5-39.81-.05-58.87-.28-2.12-1.27-4.76-2.46-6.54-.36-2.6-7.24-3.92-6.44-5.54s23.27-6.97,26.99-7.51Z"/>
    <path class="cls-3" d="M420,568v108.5c0,1.55,3.98,6.72,5.45,7.55,2.52,1.44,9.7.89,4.9,4.79l-38.35-.35c-.59-4.36,6.4-3.33,8.77-8.22,1.27-2.62,2.07-11.35,2.27-14.73,1.24-20.72,1.94-59.12-1.1-78.98-.34-2.21-1.69-4.26-2.93-6.07-.46-2.18-6.96-3.09-6-4.98.86-1.7,23.25-6.95,26.99-7.51Z"/>
    <path class="cls-3" d="M174,589v18h24l-2.5,7h-21.5v52.5c0,2.63,2.37,9.56,4.48,11.52,7.34,6.85,16.7-.84,17.52-.02-4.18,12.29-27.64,17.17-35.43,5.93-.97-1.4-3.57-7.17-3.57-8.43v-61.5c-3.14-.16-6.37.23-9.52,0-1.49-.11-2.89.78-2.48-1.49,3.28-3.23,7.67-5.93,11.01-9s10.4-11.79,13.44-13.56c1.6-.94,2.69-1.21,4.55-.95Z"/>
    <path class="cls-3" d="M230,605v19l7.49-11.01c10.21-15.79,35.88-5.76,18.81,9.86-5.69-.11-11.64-5.91-17.28-3.33-2.71,1.24-8.18,9.18-8.79,12.2-1.23,6.04-1.06,37.15.01,43.53s5.36,9.86,11.77,10.23l.99,3.5h-40.99c-.87-4.6,2.97-3.34,5.53-4.96,4.39-2.77,5.15-9.65,5.5-14.5.7-9.7,1.23-41.87-2.83-49.25-1.93-3.51-4.32-4.08-6.57-6.21-.84-.8-.91-.69-.64-2.07l27-7.01Z"/>
    <path class="cls-3" d="M465,605v20l7.49-11.01c5.08-8.98,24.16-14.86,24.6-.5.47,15.65-11.79,6.14-17.7,5.56-6.76-.67-12.98,7.87-14.16,13.68s-.81,39.13,1.04,44.51c.8,2.33,2.71,4.97,4.77,6.23,3.16,1.93,7.79.79,6.96,5.53-13.41-.95-26.56-.57-40,0l.06-3.93c7.22.28,9.42-5.16,9.98-11.52.96-10.9,1.29-37.49-.13-47.95-.97-7.13-4.08-7.55-8.27-11.5-.84-.8-.91-.69-.64-2.07l26-7.01Z"/>
    <path class="cls-3" d="M376,605v72.5c0,3.57,6.09,8.47,9.94,7.56l.06,3.93c-4.85.59-9.71-.7-14.47-.7-6.27,0-14.24,1.4-20.09.75-1.51-.17-2.48-.09-3.43-1.55,2.06-2.98,5.61-2.31,7.85-5.13,1.87-2.35,2.9-7.79,3.17-10.83.91-10.57,1.25-35.81-.12-45.95-.9-6.66-3.75-8.03-8.61-11.36-.88-.6-1.85.17-1.3-2.22l27-7.01Z"/>
    <circle class="cls-3" cx="366.25" cy="584.92" r="10.35"/>
  </g>
  <path class="cls-1" d="M520.76,316.21c16.08-2.32,34.92,26.11,40.41,39.11,5.64,13.35,6.17,20.67-8.19,27.16-18.55,8.39-72.07,13.05-78.31,34.69-2.13,7.38-.98,15.97,3.5,22.15,13.24,18.26,67.03,26.93,88.51,38.49,10.78,5.8,14.76,11.66,1.69,18.06-28.94,14.17-112.37,12.05-145.89,10.13-9.88-.56-19.18-.03-28.94-3.06-14.52-4.51-10.34-14.06-5.07-24.97,9.73-20.16,28.25-44.95,41.7-63.3,20.42-27.85,54.3-72.18,80.81-93.19,2.66-2.11,6.37-4.78,9.77-5.27Z"/>
  <path class="cls-1" d="M621.79,614.27c10.93-1.03,21.79,4.66,26.92,14.52,10.77,20.68,2.66,65.9-28.93,55.93-13.25-4.18-14.12-16.1-14.82-28.18-.33-5.69-.95-28.76.25-32.84,1.41-4.79,11.95-9,16.59-9.43Z"/>
  <path class="cls-1" d="M770,645v21.5c0,.74-2.78,5.53-3.56,6.44-7.67,8.98-25.94,7.09-25.49-7.41.4-12.88,18.83-18.24,29.05-20.53Z"/>
  <path class="cls-1" d="M312,645v20.5c0,.41-2.03,4.67-2.54,5.46-5.55,8.54-23.74,11.32-26.22-.68-3.68-17.75,15.62-22.38,28.77-25.27Z"/>
  <path class="cls-1" d="M551,632l-35.01.99c.2-29.38,36.88-34.16,35.01-.99Z"/>
</svg>